<?xml version="1.0" encoding="utf-8"?>
<!-- Generator: Adobe Illustrator 26.0.1, SVG Export Plug-In . SVG Version: 6.00 Build 0)  -->
<svg version="1.1" id="レイヤー_1" xmlns="http://www.w3.org/2000/svg" xmlns:xlink="http://www.w3.org/1999/xlink" x="0px"
	 y="0px" viewBox="0 0 500 100" style="enable-background:new 0 0 500 100;" xml:space="preserve">
<style type="text/css">
	.st0{fill:#005A49;}
</style>
<g>
	<g>
		<path class="st0" d="M49,58.1c0,0.5,0,0.8-0.1,0.9c-0.1,0.1-0.4,0.1-0.9,0.1c-0.3,0-0.5,0-0.7,0c-0.2,0-0.3-0.1-0.3-0.3
			c0-0.2,0-0.5,0-0.7c0-0.9,0-2.1,0-3.7c0-1.8,0-3,0-3.7c0-0.4,0-0.8-0.1-0.9c-0.1-0.3-0.2-0.4-0.5-0.4c-0.1,0-0.2,0-0.4,0
			c-0.2,0-0.3,0-0.4,0c-0.3,0-0.4-0.2-0.4-0.4c0-0.2,0-0.5,0-0.8c0-0.2,0.1-0.3,0.3-0.4c0,0,0.1,0,0.1,0c0.1,0,0.1,0,0.1,0
			c0.6-0.2,1.1-0.6,1.4-1c0.2-0.3,0.5-0.5,0.9-0.4h0.1c0.4,0,0.6,0,0.7,0.1c0.1,0.1,0.1,0.3,0.1,0.7c0,0.5,0,2.4,0,5.7V58.1z"/>
	</g>
	<path class="st0" d="M61.9,35.8C61.9,35.8,61.9,35.8,61.9,35.8c0,0,0-0.1,0-0.1c0.1-1.1-0.5-2.2-1.5-3c-0.8-0.6-1.8-0.9-2.6-1.1
		c-5.2-1.4-10.4-1.8-14.6-1.2c-0.6,0.1-1.3,0.1-1.9,0.2c-2.1,0.2-4.3,0.4-6.3,1.5c-1,0.6-1.7,1.2-2.1,1.9c-0.8,1.4-0.6,2.4-0.3,3
		c0.1,0.2,0.3,0.4,0.5,0.6c0.4,0.6,0.6,1.5,0.7,2.5c-3.1-0.4-6.3,1.5-7.6,4.5c-1.3,3.1-0.4,7.1,2.2,9.5c0.8,0.7,1.7,1.3,2.5,1.8
		l0.4,0.3c1.2,0.8,3.2,2.3,4.1,3c0.3,2.1,0.6,5.1,0.8,6c0,0,0,0,0,0c0,0,0,0,0,0c0.4,1.8,2.1,3.1,4.8,3.6c2,0.4,4,0.4,6.2,0.4
		c0.2,0,0.4,0,0.6,0c3.4,0,6.5-0.1,9.3-1.3c0.5-0.2,0.9-0.4,1.3-0.8c0,0,0,0,0,0c0,0,0,0,0,0c0,0,0,0,0,0c0,0,0,0,0,0
		c1.9-2,1.9-2.4,2.1-13.1c0-0.4,0-0.9,0-1.5c0-1.6-0.1-3.9,0.2-6.6l0.2-1.9c0.2-2.8,0.4-4.3,1-7.5C61.8,36.2,61.9,36,61.9,35.8
		C61.9,35.8,61.9,35.8,61.9,35.8z M34.1,47.1c0.1,0.8,0.2,1.7,0.3,2.5c0.1,1,0.2,2.1,0.3,3.1c-0.1-0.1-0.3-0.1-0.4-0.1
		c-1.5-0.4-2.8-1.2-3.6-2.3c-0.8-1.2-1.1-2.6-0.6-3.8c0.5-1.2,1.8-2,2.9-1.7c0.2,0.1,0.5,0.4,0.8,0.8c0.1,0.1,0.2,0.2,0.3,0.2
		C34,46.2,34.1,46.7,34.1,47.1z M58.6,35.4c0,0.1,0,0.1,0,0.1c-0.2,0.3-0.8,0.6-1.7,0.9c-6.6-2.2-14.6-1.7-19.4-0.2
		c-0.1,0-0.1,0.1-0.1,0.1c-0.8-0.2-1.1-0.4-1.2-0.5c-0.1-0.1-0.2-0.2-0.4-0.3c-0.1,0-0.1-0.1-0.2-0.1C37.3,33.8,49.7,31.2,58.6,35.4
		z M31.8,54.2c-0.8-0.5-1.6-1-2.2-1.6c-2-1.8-2.7-4.9-1.7-7.3c1-2.3,3.6-3.7,5.9-3.2c0,0.3,0,0.6,0,0.9c-0.1-0.1-0.3-0.1-0.4-0.1
		c-2.1-0.4-4.3,0.8-5.1,2.9c-0.7,1.8-0.4,4,0.8,5.7c1,1.4,2.7,2.5,4.7,3c0.2,0.1,0.7,0.3,1.1,0.6c0,0.5,0.1,0.9,0.1,1.4
		c-0.9-0.7-2-1.4-2.7-1.9L31.8,54.2z M58.6,45.5c-0.3,2.8-0.2,5.2-0.2,6.9c0,0.6,0,1,0,1.5c-0.2,10.3-0.2,10.4-1.6,11.8c0,0,0,0,0,0
		c0,0,0,0,0,0c-0.1,0.2-0.4,0.3-0.7,0.4c-2.5,1.1-5.4,1.1-8.6,1.2c-1.9,0-4.2,0-6.4-0.4c-0.9-0.2-2.9-0.7-3.3-2.1c0,0,0,0,0,0
		c-0.2-1-0.9-6.7-1-7.8c-0.2-2.5-0.4-4.9-0.6-7.4c-0.1-0.9-0.2-1.7-0.3-2.6c-0.2-1.7-0.4-3.4-0.4-5c0-0.9,0-1.8-0.2-2.8
		c1.5,0.5,3.3,0.7,5.1,0.9l0.3,0c2.4,0.2,4.8,0.4,7.3,0.4c2.8,0,5.7-0.3,8.9-1.1c0.3-0.1,0.6-0.1,0.9-0.2c0.4-0.1,0.9-0.1,1.4-0.3
		c-0.3,1.6-0.4,2.9-0.5,4.9L58.6,45.5z"/>
	<path class="st0" d="M64.9,78l-0.1-0.2l0,0l0,0c0,0,0,0,0,0c0,0-0.1,0-0.2,0c-0.1,0-0.2,0.1-0.4,0.1c0,0,0,0,0,0l0,0l-0.1,0
		C64,78,63.8,78,63.8,78c-0.1,0-0.1,0.1-0.1,0.1c0,0,0,0,0,0l0,0l0.1,0.2l0,0l0,0l0,0l0,0l0,0l0,0l0,0l0.1,0.3l0,0.1l0,0l0,0l0,0
		l0,0l0.1,0.3c0,0.1,0,0.2,0,0.3c0,0.1-0.1,0.2-0.3,0.3c0,0,0,0-0.1,0c0,0,0,0,0,0c-0.2,0.1-0.5,0-0.7-0.2c0,0-0.1-0.1-0.1-0.1
		c0,0,0-0.1-0.1-0.2c0,0,0,0,0,0c0,0,0,0,0,0l0,0l-1.1-3.1l0,0l-0.2-0.5l0,0c0,0,0-0.1,0-0.1c0-0.1,0-0.1,0-0.2
		c0-0.1,0.1-0.2,0.3-0.3c0,0,0,0,0.1,0c0,0,0,0,0,0c0.2-0.1,0.5,0,0.7,0.2c0,0,0,0,0,0l0,0l0,0l0,0l0,0l0,0l0,0l0,0l0,0l0.1,0.2l0,0
		l0,0l0,0l0,0l0,0l0.1,0.4l0,0l0,0l0,0c0,0,0,0,0,0c0,0,0.1,0,0.2,0c0.1,0,0.7-0.3,0.9-0.3c0,0-0.1-0.4-0.3-1c0,0-0.2-0.4-0.1-0.2
		c-0.5-0.8-1.5-1.1-2.4-0.7c-0.7,0.3-1,1-1,1.7c0,0,0,0.3,0.1,0.3c0,0,0.1,0.2,0.1,0.2l0,0l0.2,0.4l0,0l0,0l0,0.1l0,0l0,0l0,0l0,0.1
		l0.3,0.8l0.1,0.2l0,0l0,0.1l0,0.1l0,0.1l0.5,1.5l0.1,0.2l0,0l0,0c0,0.1,0.1,0.1,0.1,0.2c0,0,0,0,0,0c0.5,0.9,1.6,1.2,2.5,0.8
		c0.7-0.3,1-1,1-1.7c0-0.1,0-0.2,0-0.2c0,0,0-0.1,0-0.1L64.9,78L64.9,78z"/>
	<path class="st0" d="M70.6,77.6c-0.1-0.1-0.1-0.2-0.2-0.3l0,0l-2.8-4.2l0,0l-0.6-0.9L67,72.1l0,0c0-0.1-0.1-0.1-0.1-0.1
		c-0.1-0.1-0.2-0.1-0.4-0.1c-0.2,0-1.1,0.5-1.1,0.5c-0.1,0.1-0.2,0.2-0.2,0.3c0,0,0,0.1,0,0.2l0,0l0.1,0.2l0.3,1l0,0l1.3,4.8l0,0
		c0,0.1,0.1,0.3,0.1,0.4c0.1,0.3,0.1,0.4,0.2,0.5c0.1,0.1,1.1-0.4,1.1-0.5c0-0.1,0-0.2,0-0.3l0,0l0,0l-0.1-0.3c0,0-0.2-0.6-0.2-0.7
		c0-0.1,0-0.2,0-0.2c0.1-0.1,0.1-0.1,0.2-0.2c0.1-0.1,0.2-0.1,0.3-0.1c0,0,0.1,0,0.2,0c0.1,0,0.2,0,0.2,0.1c0.1,0.2,0.3,0.4,0.4,0.6
		c0.1,0.1,0.1,0.2,0.2,0.3l0,0l0,0c0.1,0.1,0.2,0.2,0.2,0.2c0.1,0.1,1.1-0.4,1.1-0.5C70.9,77.9,70.8,77.8,70.6,77.6z M67.5,76.4
		l-0.1-0.2L67.4,76l0-0.2l0-0.2l0,0l-0.1-0.2c0,0-0.1-0.2,0-0.3c0.1,0,0.2,0.2,0.2,0.2l0.1,0.2l0,0l0.1,0.1l0.1,0.1L68,76l0.1,0.2
		c0,0,0,0-0.1,0.1c-0.1,0,0,0-0.2,0.1C67.6,76.5,67.5,76.4,67.5,76.4z"/>
	<path class="st0" d="M78.8,71.2l-0.3,0.2l0,0c-0.2,0.2-0.4,0.3-0.6,0.5c-0.1,0.1-0.2,0.1-0.3,0.1c0,0-0.1,0-0.2-0.1
		c-0.2-0.3-0.5-0.6-0.7-0.9c0,0-0.1-0.2-0.1-0.3c0-0.2,0.2-0.3,0.2-0.3c0,0,0.4-0.3,0.4-0.4c0,0,0,0,0,0c0.1-0.1,0.2-0.1,0.2-0.2
		c0.1-0.1,0.1-0.2,0-0.4c-0.1-0.1-0.2-0.2-0.3-0.4c-0.2-0.2-0.3-0.3-0.4-0.3c-0.1,0-0.2,0.1-0.4,0.2l-0.3,0.2l0,0
		c-0.1,0.1-0.1,0.1-0.2,0.2c-0.1,0.1-0.2,0.1-0.3,0.1c-0.1,0-0.2,0-0.2-0.1c-0.2-0.3-0.5-0.6-0.7-0.9c0,0,0,0,0,0
		c0,0-0.2-0.2-0.1-0.3c0-0.2,0.1-0.3,0.1-0.3c0,0,0.9-0.7,0.9-0.7c0,0,0,0,0,0c0.1-0.1,0.2-0.1,0.2-0.2c0.1-0.1,0.2-0.2,0.1-0.3
		c-0.1-0.1-0.2-0.2-0.3-0.4c-0.2-0.2-0.3-0.3-0.4-0.3c-0.1,0-0.2,0.1-0.4,0.2l-0.3,0.2l0,0l-1.2,1c-0.1,0-0.1,0.1-0.2,0.2
		c0,0,0,0,0,0l0,0L73,67.8c0,0-0.1,0-0.1,0.1L72.8,68c0,0,0,0,0,0c0,0-0.1,0.1-0.1,0.1c-0.1,0.1-0.1,0.2,0,0.2c0,0,0.1,0.1,0.1,0.2
		l0.1,0.1l0.7,0.8l0,0l0,0l0.1,0.1l0,0l0,0l0,0l0.1,0.1l0.8,1l0.2,0.2l0,0l0.1,0.1l0.1,0.1l0.1,0.2l1.6,1.9l0.2,0.2l0,0l0,0
		c0.1,0.1,0.1,0.2,0.2,0.2c0.1,0.1,0.2,0.1,0.3,0.1c0,0,0,0,0,0l0,0c0,0,0,0,0,0c0.1-0.1,0.2-0.2,0.4-0.3c0.1-0.1,0.2-0.1,0.2-0.2
		l1.4-1.1l0,0c0.1-0.1,0.2-0.1,0.2-0.2c0.1-0.1,0.1-0.2,0-0.3c-0.1-0.1-0.2-0.2-0.3-0.4c-0.2-0.2-0.3-0.3-0.4-0.3
		C79.2,70.9,79,71,78.8,71.2z"/>
	<path class="st0" d="M71.5,69c-0.1,0-0.2,0.1-0.4,0.2l-0.3,0.2l0,0l-1.3,0.9c0,0,0,0,0,0c0,0,0,0-0.1,0c0,0,0,0,0,0c0,0,0,0-0.1,0
		c0,0,0,0,0,0c0,0-0.1,0-0.1,0.1c0,0,0,0,0,0l0,0l-0.1,0c0,0,0,0,0,0c0,0,0,0,0,0L69,70.7c0,0,0,0,0,0c0,0,0,0,0,0c0,0,0,0,0,0
		c0,0,0,0,0,0c0,0,0,0,0,0c-0.1,0.1-0.1,0.2,0,0.2c0,0,0.1,0.1,0.1,0.2l0.1,0.1l0.6,0.9l0,0l0,0l0.1,0.1l0,0l0,0l0,0l0.1,0.1l0.7,1
		l0.1,0.2l0,0l0.1,0.1l0.1,0.1l0.1,0.2l0.5,0.7l0.9,1.3l0.2,0.3l0,0l0,0c0.1,0.1,0.1,0.2,0.2,0.2c0.1,0.1,0.2,0.1,0.3,0.1
		c0.1-0.1,0.2-0.1,0.4-0.3c0.2-0.2,0.3-0.3,0.3-0.3c0-0.1-0.1-0.2-0.2-0.4c-0.1-0.1-0.1-0.2-0.2-0.3l0,0l-0.9-1.3L72.6,74
		c0,0-0.1-0.2-0.1-0.3c0.1-0.2,0.2-0.3,0.2-0.3c0,0,0.5-0.3,0.5-0.3c0.1-0.1,0.2-0.1,0.2-0.2c0.1-0.1,0.1-0.2,0.1-0.4
		c-0.1-0.1-0.1-0.2-0.3-0.4c-0.2-0.2-0.3-0.3-0.3-0.4c-0.1,0-0.2,0.1-0.4,0.2l-0.3,0.2c-0.1,0.1-0.1,0.1-0.2,0.2
		c-0.1,0.1-0.2,0.1-0.3,0.1c-0.1,0-0.2-0.1-0.2-0.1l-0.6-0.9l0,0l0-0.1c0-0.1-0.1-0.2-0.1-0.2c0-0.2,0.2-0.3,0.2-0.3
		c0,0,0.9-0.7,1-0.7c0,0,0,0,0,0c0.1-0.1,0.2-0.1,0.2-0.2c0.1-0.1,0.2-0.2,0.1-0.3c-0.1-0.1-0.1-0.2-0.3-0.4
		C71.7,69.1,71.6,69,71.5,69z"/>
	<path class="st0" d="M46.9,78l0-1l0-0.2l0,0c0-0.1,0-0.1,0-0.2c0-0.2-0.1-0.2-0.2-0.3c-0.1,0-0.2,0-0.4,0c0,0,0,0,0,0l0,0l-0.1,0
		c-0.2,0-0.3,0-0.4,0c-0.1,0-0.2,0.1-0.2,0.2c0,0,0,0.1,0,0.2l0,0.1l0,1.1l0,0l0,0l0,0.2l0,0l0,0l0,0l0,0.2l0,1.3l0,0.3l0,0l0,0.2
		l0,0.2l0,0.2L45.5,83l0,0.3l0,0l0,0c0,0.1,0,0.2,0,0.3c0,0.2,0.1,0.2,0.2,0.3c0.1,0,0.3,0,0.5,0c0.3,0,0.4,0,0.5-0.1
		c0.1-0.1,0.1-0.2,0.1-0.5c0-0.1,0-0.2,0-0.4l0,0L46.9,78L46.9,78z"/>
	<path class="st0" d="M49.6,76.2c-0.1,0-0.3,0-0.5,0c0,0,0,0,0,0l0,0l-0.1,0c-0.2,0-0.3,0-0.4,0.1c-0.1,0-0.2,0.1-0.1,0.2
		c0,0,0,0.1,0,0.2l0,0.1l0.1,1.1l0,0l0,0l0,0.2l0,0l0,0l0,0l0,0.2l0.1,1.3l0,0.3l0,0l0,0.2l0,0.2l0,0.2l0.2,2.5l0,0.3l0,0l0,0
		c0,0.1,0,0.2,0,0.3c0,0.2,0.1,0.2,0.3,0.2c0.1,0,0.3,0,0.5,0c0.3,0,0.4-0.1,0.5-0.1c0-0.1,0.1-0.2,0-0.5c0-0.1,0-0.2,0-0.4l0,0
		l-0.3-3.1l0.1,0.2l0,0l0.1,0.1l0.1,0.2l0.1,0.2l1,2.3l0.1,0.3l0,0l0,0c0.1,0.1,0,0,0,0l0.2,0.4c0.1,0.2,0.2,0.2,0.3,0.2
		c0.1,0,0.3,0,0.6,0c0.3,0,0.4-0.1,0.5-0.1c0-0.1,0.1-0.2,0-0.5c0-0.1,0-0.2,0-0.4l0,0l-0.4-5l0,0l-0.1-1l0-0.2l0,0
		c0-0.1,0-0.1,0-0.2c0-0.2-0.1-0.2-0.3-0.2c-0.1,0-0.2,0-0.4,0c0,0,0,0,0,0l0,0l-0.1,0c-0.2,0-0.3,0-0.4,0.1c-0.1,0-0.2,0.1-0.1,0.2
		c0,0,0,0.1,0,0.2l0,0.1l0.1,1.1l0,0l0,0l0,0.2l0,0l0,0l0,0l0,0.2l0.1,1.3l0,0.3l0,0l0,0.2l0,0.2l0,0l-1.1-2.4l0,0l-0.4-1l-0.1-0.2
		l0,0c0-0.1-0.1-0.1-0.1-0.1C49.9,76.2,49.8,76.2,49.6,76.2C49.6,76.2,49.6,76.2,49.6,76.2"/>
	<path class="st0" d="M29.7,73.4c0-0.1-1-0.6-1.1-0.6c-0.1,0-0.2,0.1-0.2,0.2l0,0l0,0l-0.2,0.2l-0.4,0.5l-0.1,0.2l0,0l-0.9,1.2
		l0.7-2.3l0.1-0.3l0,0l0,0c0-0.1,0-0.1,0-0.2c0-0.1,0-0.1,0-0.2c0-0.1-0.1-0.2-0.4-0.3c-0.3-0.2-0.6-0.3-0.6-0.2
		c-0.1,0-0.1,0-0.3,0.2c0,0,0,0,0,0l0,0l0,0l-0.2,0.2l-0.4,0.5L25.6,73l0,0l-0.9,1.2l0,0l0.7-2.3l0.1-0.3l0,0l0,0
		c0-0.1,0.1-0.3,0.1-0.3c0-0.1-1-0.6-1.1-0.6c-0.1,0.1-0.1,0.2-0.2,0.5c0,0.1-0.1,0.2-0.1,0.3l0,0l-1.5,4.6l0,0l-0.1,0.2L22.4,77
		l-0.1,0.3l0,0l0,0c0,0.1,0,0.1,0,0.2c0,0,0,0.1,0,0.1c0,0.1,0.6,0.4,0.9,0.5c0.1,0,0.2,0.1,0.2,0c0,0,0,0,0,0
		c0.1,0,0.1-0.1,0.2-0.2l0,0l0,0l0.2-0.2l1.4-1.9l-0.4,1.3l0,0l-0.1,0.2L24.5,78l-0.1,0.3l0,0l0,0c0,0.1,0,0.1,0,0.2
		c0,0,0,0.1,0,0.1c0,0.1,0.2,0.2,0.4,0.3c0.3,0.2,0.6,0.3,0.7,0.3c0,0,0,0,0.1-0.1c0.1,0,0.1-0.1,0.2-0.2l0,0l0,0l0.2-0.2l1.4-1.9
		l0.1-0.2l0.1-0.1l0.1-0.1l0,0l0.1-0.2l0.7-1l0.1-0.1l0,0l0,0l0,0l0.1-0.1l0,0l0,0l0.6-0.8l0.1-0.1c0-0.1,0.1-0.1,0.1-0.2
		c0,0,0,0,0,0C29.7,73.6,29.7,73.5,29.7,73.4z"/>
	<path class="st0" d="M16.8,71.2L17,71l0,0l0,0c0,0,0,0,0,0c0,0,0-0.1-0.2-0.2c-0.1-0.1-0.2-0.1-0.3-0.2c0,0,0,0,0,0l0,0l-0.1-0.1
		c-0.1-0.1-0.2-0.2-0.3-0.2c-0.1-0.1-0.1-0.1-0.2-0.1c0,0,0,0,0,0l0,0l-0.1,0.2l0,0l0,0l0,0l0,0l0,0l0,0l0,0l-0.2,0.2l0,0l0,0l0,0
		l0,0l0,0L15.3,71c-0.1,0.1-0.2,0.1-0.2,0.2c-0.1,0-0.3,0-0.4-0.1c0,0,0,0-0.1,0c0,0,0,0,0,0c-0.2-0.2-0.3-0.4-0.2-0.7
		c0,0,0.1-0.1,0.1-0.1c0,0,0.1-0.1,0.1-0.1c0,0,0,0,0,0c0,0,0,0,0,0l0,0l2.1-2.5l0,0l0.3-0.4l0,0c0,0,0.1-0.1,0.1-0.1
		c0.1,0,0.1-0.1,0.2-0.1c0.1,0,0.3,0,0.4,0.1c0,0,0,0,0.1,0c0,0,0,0,0,0c0.2,0.2,0.3,0.4,0.2,0.7c0,0,0,0,0,0l0,0l0,0l0,0l0,0l0,0
		l0,0l0,0l0,0L17.8,68l0,0l0,0l0,0l0,0l0,0l-0.3,0.3l0,0l0,0l0,0c0,0,0,0,0,0c0,0,0.1,0.1,0.2,0.2c0.1,0.1,0.6,0.5,0.8,0.6
		c0,0,0.3-0.3,0.7-0.8c0,0,0.2-0.4,0.1-0.2c0.4-0.8,0.1-1.9-0.7-2.4c-0.6-0.4-1.4-0.4-2,0c0,0-0.2,0.2-0.2,0.2c0,0-0.1,0.1-0.2,0.2
		l0,0l-0.3,0.4l0,0l0,0l-0.1,0.1l0,0l0,0l0,0L15.6,67l-0.5,0.7l-0.1,0.1l0,0l-0.1,0.1l-0.1,0.1L14.7,68l-1,1.3l-0.1,0.2l0,0l0,0
		c-0.1,0.1-0.1,0.1-0.1,0.2c0,0,0,0,0,0c-0.5,0.9-0.3,2,0.6,2.5c0.6,0.4,1.4,0.4,2,0c0.1-0.1,0.2-0.1,0.2-0.2c0,0,0.1-0.1,0.1-0.1
		L16.8,71.2L16.8,71.2z"/>
	<path class="st0" d="M22.9,71.5C23,71.5,23,71.4,22.9,71.5C23,71.4,23,71.4,22.9,71.5C23,71.4,23,71.4,22.9,71.5
		c0.1-0.1,0.1-0.1,0.1-0.2c0,0,0,0,0,0c0.4-0.8,0.1-1.7-0.5-2.2c0,0,0,0,0,0c0,0,0,0-0.1,0c0,0,0,0,0,0c0,0,0,0,0,0c0,0,0,0-0.1,0
		c0,0,0,0,0,0c-0.1,0-0.1-0.1-0.2-0.1c-0.7-0.3-1.4-0.2-2,0.2c0,0-0.2,0.2-0.2,0.2c0,0-0.1,0.2-0.2,0.2l-0.3,0.4l0,0l0,0L19.5,70
		l0,0l0,0l0,0l-0.1,0.1l-0.5,0.7L18.8,71l0,0l-0.1,0.1l-0.1,0.1l-0.1,0.1l-0.9,1.4l-0.1,0.2l0,0l0,0c0,0,0,0,0,0.1c0,0,0,0,0,0
		c0,0,0,0,0,0c0,0,0,0.1,0,0.1c0,0,0,0,0,0c-0.4,0.8-0.1,1.7,0.5,2.2c0,0,0,0,0,0c0,0,0,0,0.1,0c0,0,0,0,0,0c0,0,0,0,0,0
		c0,0,0,0,0.1,0c0,0,0,0,0,0c0.1,0,0.1,0.1,0.2,0.1c0.7,0.3,1.4,0.2,2-0.2c0,0,0.2-0.2,0.2-0.2c0,0,0.1-0.2,0.2-0.2l0.3-0.4l0,0l0,0
		l0.1-0.1l0,0l0,0l0,0l0.1-0.1l0.5-0.7l0.1-0.1l0,0l0.1-0.1l0.1-0.1l0.1-0.1l0.9-1.4L22.9,71.5L22.9,71.5L22.9,71.5z M21.9,70.7
		L21.9,70.7L21.9,70.7L21.9,70.7L21.9,70.7L21.9,70.7L21.7,71l0,0l0,0l0,0l0,0l0,0l-0.2,0.3l0,0l0,0l0,0c0,0,0,0,0,0l-1.2,1.8
		c0,0,0,0,0,0l-0.6,0.9l0,0l0,0c-0.1,0.1-0.2,0.2-0.2,0.2c-0.1,0-0.3,0.1-0.4,0c0,0,0,0-0.1,0c-0.2-0.1-0.3-0.4-0.2-0.7
		c0,0,0-0.1,0-0.1c0-0.1,0,0,0,0l0,0l0,0l0,0l0,0l0,0l0,0l0,0l0,0l0.1-0.2l0,0l0,0l0,0l0,0l0,0l0.2-0.3l0,0l0,0l0,0c0,0,0,0,0,0
		l1.2-1.8c0,0,0,0,0,0l0.6-0.9l0,0l0,0c0.1-0.1,0.2-0.2,0.2-0.2c0.1,0,0.3-0.1,0.4,0c0,0,0,0,0.1,0C21.9,70.2,22,70.4,21.9,70.7
		C21.9,70.7,21.9,70.7,21.9,70.7C21.9,70.7,21.9,70.7,21.9,70.7L21.9,70.7"/>
	<path class="st0" d="M33.9,76.3C33.9,76.3,33.9,76.2,33.9,76.3C33.9,76.2,33.9,76.2,33.9,76.3C33.9,76.2,33.9,76.2,33.9,76.3
		c0-0.1,0-0.2,0-0.2c0,0,0,0,0,0c0.1-0.8-0.3-1.7-1.1-2c0,0,0,0,0,0c0,0,0,0-0.1,0c0,0,0,0,0,0c0,0,0,0-0.1,0c0,0,0,0-0.1,0
		c0,0,0,0,0,0c-0.1,0-0.1,0-0.2,0c-0.7-0.1-1.4,0.2-1.8,0.8c0,0-0.1,0.2-0.1,0.3c0,0-0.1,0.2-0.1,0.2l-0.1,0.4l0,0l0,0l0,0.1l0,0
		l0,0l0,0l0,0.1l-0.3,0.8L29.8,77l0,0l0,0.1l0,0.1l0,0.1l-0.5,1.6l-0.1,0.2l0,0l0,0c0,0,0,0.1,0,0.1c0,0,0,0,0,0c0,0,0,0,0,0
		c0,0,0,0.1,0,0.1c0,0,0,0,0,0c-0.1,0.8,0.3,1.7,1.1,2c0,0,0,0,0,0c0,0,0,0,0.1,0c0,0,0,0,0,0c0,0,0,0,0.1,0c0,0,0,0,0.1,0
		c0,0,0,0,0,0c0.1,0,0.1,0,0.2,0c0.7,0.1,1.4-0.2,1.8-0.8c0,0,0.1-0.2,0.1-0.3c0,0,0.1-0.2,0.1-0.2l0.1-0.4l0,0l0,0l0-0.1l0,0l0,0
		l0,0l0-0.1l0.3-0.8l0.1-0.2l0,0l0-0.1l0-0.1l0-0.1l0.5-1.6L33.9,76.3L33.9,76.3L33.9,76.3z M32.6,75.9L32.6,75.9L32.6,75.9
		L32.6,75.9L32.6,75.9L32.6,75.9l-0.1,0.3l0,0l0,0l0,0l0,0l0,0l-0.1,0.4l0,0l0,0l0,0c0,0,0,0,0,0l-0.7,2.1c0,0,0,0,0,0l-0.3,1.1l0,0
		l0,0c0,0.1-0.1,0.2-0.2,0.2c-0.1,0.1-0.2,0.1-0.4,0.1c0,0-0.1,0-0.1,0c-0.2-0.1-0.4-0.3-0.4-0.6c0,0,0-0.1,0-0.1c0-0.1,0,0,0,0l0,0
		l0,0l0,0l0,0l0,0l0,0l0,0l0,0l0.1-0.2l0,0l0,0l0,0l0,0l0,0l0.1-0.4l0,0l0,0l0,0c0,0,0,0,0,0l0.7-2.1c0,0,0,0,0,0l0.3-1.1l0,0l0,0
		c0-0.1,0.1-0.2,0.2-0.2c0.1-0.1,0.2-0.1,0.4-0.1c0,0,0.1,0,0.1,0C32.5,75.3,32.7,75.6,32.6,75.9C32.7,75.8,32.7,75.8,32.6,75.9
		C32.7,75.8,32.7,75.8,32.6,75.9L32.6,75.9"/>
	<path class="st0" d="M58.4,79.7L58.4,79.7l-0.3-1.2l0,0c0-0.1,0-0.1,0-0.1c0-0.1-0.1-0.2-0.3-0.2c-0.1,0-0.2,0-0.3,0.1c0,0,0,0,0,0
		l-0.1,0l-0.1,0l-0.6,0.1l0,0c-0.1,0-0.2,0.1-0.3,0.1c-0.1,0-0.2,0.1-0.2,0.3c0,0.1,0,0.3,0.1,0.5c0.1,0.3,0.1,0.4,0.2,0.5
		c0.1,0.1,0.5,0,0.5,0.2l0,0l0.1,0.4L57.1,80l0,0.2l0,0l0,0l0,0l0,0l0,0l0,0l0,0l0.1,0.3l0,0l0,0.1l0,0l0,0l0,0l0,0l0,0.2
		c0,0.1,0,0.2,0,0.3c0,0.1-0.1,0.2-0.3,0.3c0,0-0.1,0-0.1,0c0,0,0,0,0,0c-0.3,0.1-0.5-0.1-0.6-0.3c0,0,0-0.1,0-0.1c0,0,0-0.1,0-0.1
		c0,0,0,0,0,0c0,0,0,0,0,0l0,0l-0.7-3.2l0,0l-0.1-0.5l0,0c0,0,0-0.1,0-0.1c0-0.1,0-0.1,0-0.2c0-0.1,0.1-0.2,0.3-0.3c0,0,0.1,0,0.1,0
		c0,0,0,0,0,0c0.3-0.1,0.5,0.1,0.6,0.3c0,0,0,0,0,0l0,0l0,0l0,0l0,0l0,0l0,0l0,0l0,0l0,0.2l0,0l0,0l0,0l0,0l0,0l0.1,0.4l0,0.1l0,0
		l0,0c0,0,0,0,0,0c0,0,0.1,0,0.2,0c0.1,0,0.8-0.2,1-0.2c0,0,0-0.4-0.2-1c0,0,0-0.2,0,0c-0.2-1.1-1.5-1.5-2.4-1.2
		c-0.7,0.2-1.2,0.9-1.2,1.6c0,0,0,0.3,0,0.3c0,0,0,0.2,0,0.2l0.1,0.5l0,0l0,0l0,0.1l0,0l0,0l0,0l0,0.1l0.2,0.8l0,0.2l0,0l0,0.1
		l0,0.1l0,0.1l0.3,1.6l0,0.2l0,0l0,0c0,0.1,0,0.1,0.1,0.2c0,0,0,0,0,0c0.3,0.9,1.4,1.4,2.3,1.1c0.7-0.2,1.2-0.9,1.2-1.6
		c0-0.2-0.1-0.8-0.1-0.8c0,0,0,0,0,0l0,0c0,0,0,0,0,0L58.4,79.7z"/>
	<path class="st0" d="M37.9,82.7c0-0.1-0.1-0.8,0-1l-0.1-2c0.3-0.2,0.6-0.5,0.7-0.9c0,0,0,0,0,0c0,0,0-0.1,0.1-0.2l0,0l0.1-0.4
		l0.1-0.4l0.1-0.4l0,0c0-0.1,0-0.1,0-0.2c0,0,0,0,0,0c0.1-1-0.7-1.8-1.7-2c-0.3-0.1-0.9-0.2-1-0.2c0,0,0,0,0,0l0,0l-0.1,0
		c-0.2,0-0.3-0.1-0.4-0.1c-0.1,0-0.2,0.1-0.2,0.1c0,0,0,0.1-0.1,0.2l0,0.1l-0.2,1l0,0l0,0l0,0.2l0,0l0,0l0,0l0,0.2l-0.3,1.3
		l-0.1,0.3l0,0l0,0.2l0,0.2l0,0.2l-0.5,2.4l-0.1,0.3l0,0l0,0c0,0.1,0,0.2,0,0.3c0,0.2,0,0.3,0.2,0.3c0.1,0,0.3,0.1,0.5,0.1
		c0.3,0.1,0.4,0.1,0.5,0c0.1,0,0.1-0.2,0.2-0.5c0-0.1,0-0.2,0.1-0.4l0,0l0.4-1.7c0,0,0,0,0,0c0.1-0.1,0.2-0.2,0.3-0.2c0,0,0,0,0,0
		c0,0,0,0,0,0c0,0,0,0,0,0c0.1,0,0.2,0.1,0.2,0.2l0,0c0,0,0,0.1,0,0.1c0,0,0,0.1,0,0.1l0,0l0,1.9l0,0.3l0,0l0,0c0,0.1,0,0.3,0.1,0.4
		c0,0.1,1,0.3,1.1,0.2C37.7,83.1,37.9,83,37.9,82.7z M37.3,78.1L37.3,78.1c0,0,0,0.1,0,0.2c0,0,0,0.1,0,0.1
		c-0.1,0.2-0.4,0.4-0.6,0.3c0,0,0,0,0,0c0,0-0.1,0-0.1,0c-0.2-0.1-0.3-0.2-0.3-0.3c0,0,0-0.1,0-0.3l0.2-1.1l0,0l0-0.2
		c0.1-0.2,0.1-0.4,0.1-0.5c0.1,0,0.2,0,0.5,0.1c0,0,0,0,0,0c0.3,0.1,0.4,0.3,0.5,0.5c0,0,0,0.1,0,0.1c0,0,0,0.1,0,0.2l0,0l0,0l0,0.2
		L37.3,78.1L37.3,78.1z"/>
	<path class="st0" d="M43.7,83.7c0-0.1-0.7-2.4-1-3.5c0-0.1-0.3-0.8-0.3-0.9c0-0.1,0.1-0.2,0.1-0.2c0.1-0.1,1.5-2.4,1.6-2.5
		c0.1-0.1-0.1-0.2-0.2-0.2c-0.1,0-0.2,0-0.4,0c0,0,0,0,0,0l0,0l-0.1,0c-0.2,0-0.2,0-0.3,0c-0.1,0-0.3,0-0.4,0.1c0,0-0.3,0.4-0.4,0.6
		l-0.5,0.8c0,0-0.4,0.5-0.3,0c0-0.5,0.1-0.9,0.1-0.9l0-0.2l0,0c0-0.1,0-0.1,0-0.2c0-0.2-0.1-0.2-0.2-0.3c-0.1,0-0.2,0-0.4,0
		c0,0,0,0,0,0l0,0l-0.1,0c-0.2,0-0.3,0-0.4,0c-0.1,0-0.2,0.1-0.2,0.2c0,0,0,0.1,0,0.2l0,0.1l-0.1,1.1l0,0l0,0l0,0.2l0,0l0,0l0,0
		l0,0.2L40,79.3l0,0.3l0,0l0,0.2l0,0.2l0,0.2l-0.2,2.5l0,0.3l0,0l0,0c0,0.1,0,0.2,0,0.3c0,0.2,0.1,0.2,0.2,0.3c0.1,0,0.3,0,0.5,0.1
		c0.3,0,0.4,0,0.5,0c0.1,0,0.1-0.2,0.1-0.5c0-0.1,0-0.2,0-0.4l0,0c0,0,0.1-1.3,0.1-1.4c0-0.1,0.4-0.4,0.5,0.1C42,83,42,83,42,83
		c0,0.1,0.2,0.6,0.2,0.6c0,0.1,0.2,0.1,0.3,0.2c0.1,0,0.1,0,0.3,0l0.1,0l0,0c0,0,0,0,0,0c0.2,0,0.3,0,0.4,0
		C43.5,83.9,43.7,83.8,43.7,83.7z"/>
	<path class="st0" d="M42.2,18.6l-0.1-1l0-0.2l0,0c0-0.1,0-0.1,0-0.1c0-0.1-0.1-0.2-0.2-0.2c-0.1,0-0.2,0-0.3,0c0,0,0,0,0,0l0,0
		l-0.1,0c-0.2,0-0.3,0-0.3,0.1c-0.1,0-0.1,0.1-0.1,0.2c0,0,0,0.1,0,0.2l0,0.1l0.1,1l0,0l0,0l0,0.2l0,0l0,0l0,0l0,0.2l0.1,1.2l0,0.2
		l0,0l0,0.2l0,0.2l0,0.2l0.2,2.4l0,0.3l0,0l0,0c0,0.1,0,0.2,0,0.3c0,0.1,0.1,0.2,0.2,0.2c0.1,0,0.2,0,0.4,0c0.2,0,0.4-0.1,0.4-0.1
		c0-0.1,0.1-0.2,0-0.5c0-0.1,0-0.2,0-0.4l0,0L42.2,18.6L42.2,18.6z"/>
	<path class="st0" d="M27.8,22.1l-0.4-0.9L27.3,21l0,0c0-0.1,0-0.1-0.1-0.1c-0.1-0.1-0.2-0.2-0.3-0.1c-0.1,0-0.2,0.1-0.3,0.1
		c0,0,0,0,0,0l0,0l-0.1,0c-0.2,0.1-0.3,0.1-0.3,0.2c-0.1,0-0.1,0.1-0.1,0.2c0,0,0,0.1,0.1,0.2l0,0.1l0.4,0.9l0,0l0,0l0.1,0.2l0,0
		l0,0l0,0l0.1,0.2l0.5,1.1l0.1,0.2l0,0l0.1,0.1l0.1,0.1l0.1,0.2l0.9,2.2l0.1,0.3l0,0l0,0c0,0.1,0.1,0.2,0.1,0.3
		c0.1,0.1,0.2,0.2,0.3,0.1c0.1,0,0.2-0.1,0.4-0.2c0.2-0.1,0.4-0.2,0.4-0.2c0-0.1,0-0.2-0.1-0.5c0-0.1-0.1-0.2-0.1-0.3l0,0L27.8,22.1
		L27.8,22.1z"/>
	<path class="st0" d="M56.6,18.6C56.6,18.6,56.6,18.6,56.6,18.6l0,0.4l0,0l0,0l0,0.1l0,0l0,0l0,0l0,0.1l0.1,0.9l0,0.2l0,0l0,0.1
		l0,0.1l0,0.1l0.1,1.7l0,0.1l0,0.1l0,0l0,0.1l0,0.1l0,0.1l-0.4,1.7L56.3,25l0,0l0,0c0,0.1,0,0.2,0,0.2c0,0.1,0.1,0.2,0.2,0.2
		c0.1,0,0.2,0.1,0.4,0.1c0.2,0.1,0.4,0.1,0.5,0.1c0.1,0,0.1-0.1,0.2-0.3c0-0.1,0-0.2,0.1-0.3l0,0l0.6-2.2l0.9-1.5l0.1-0.1l0.1-0.1
		l0.1-0.1l0,0l0.1-0.2l0.5-0.8l0.1-0.1l0,0l0,0l0,0l0.1-0.1l0,0l0,0l0.2-0.3c0,0,0,0,0,0l0.1-0.1l0.1-0.1c0,0,0,0,0,0
		c0.1-0.2,0,0,0.1-0.2c0.1-0.1-0.1-0.2-0.2-0.2c-0.1,0-0.2-0.1-0.4-0.1c0,0,0,0,0,0l0,0l-0.1,0c-0.2,0-0.2,0-0.3,0
		c-0.1,0-0.3,0-0.3,0c0,0-0.2,0.3-0.2,0.4l-0.8,1.2l0,0c0,0,0,0,0,0c0,0,0,0,0,0l0,0l-0.1,0c0,0,0,0,0,0l0,0l-0.1-1.4
		c0-0.1,0-0.5,0-0.5c0-0.1-0.2-0.2-0.3-0.2c-0.1,0-0.1,0-0.3-0.1l-0.1,0l0,0c0,0,0,0,0,0c-0.2,0-0.3-0.1-0.4-0.1
		c-0.2,0-0.3,0-0.3,0.1c0.1,1.6,0.1,1.3,0.1,1.6c0,0-0.1-1.3-0.1-1.3"/>
	<path class="st0" d="M38.5,19.1l-0.2-1.2l0,0c0-0.1,0-0.1,0-0.1c0-0.1-0.1-0.2-0.3-0.2c-0.1,0-0.2,0-0.3,0.1c0,0,0,0,0,0l0,0
		l-0.1,0c-0.2,0-0.3,0.1-0.3,0.1c-0.1,0-0.1,0.1-0.1,0.2c0,0,0,0.1,0,0.2l0.5,2.3c0,0,0,0,0,0.1c0,0,0,0.1,0,0.2c0,0,0,0-0.1,0
		c0,0,0,0-0.1,0c-0.3,0.1-0.4,0.1-0.7,0.1c0,0-0.1,0-0.2,0c-0.1,0-0.1-0.1-0.1-0.1l-0.2-1.2l0,0L36,18.3l0,0c0-0.1,0-0.1,0-0.1
		c0-0.1-0.1-0.2-0.3-0.2c-0.1,0-0.2,0-0.3,0.1c0,0,0,0,0,0l0,0l-0.1,0c-0.2,0-0.3,0.1-0.3,0.1c-0.1,0-0.1,0.1-0.1,0.2
		c0,0,0,0.1,0,0.2l0.7,3.1l0,0.1l0.4,1.9l0,0l0.2,1.2l0,0c0,0.1,0,0.1,0,0.1c0,0.1,0.1,0.2,0.3,0.2c0.1,0,0.2,0,0.3-0.1c0,0,0,0,0,0
		l0,0l0.1,0c0.2,0,0.3-0.1,0.3-0.1c0.1,0,0.1-0.1,0.1-0.2c0,0,0-0.1,0-0.2l-0.5-2.3c0,0,0,0,0-0.1c0,0,0-0.1,0-0.2c0,0,0,0,0.1,0
		c0,0,0,0,0.1,0c0.3-0.1,0.4-0.1,0.7-0.1c0,0,0.1,0,0.2,0c0.1,0,0.1,0.1,0.1,0.1l0.2,1.2l0,0l0.2,1.2l0,0c0,0.1,0,0.1,0,0.1
		c0,0.1,0.1,0.2,0.3,0.2c0.1,0,0.2,0,0.3-0.1c0,0,0,0,0,0l0,0l0.1,0c0.2,0,0.3-0.1,0.3-0.1c0.1,0,0.1-0.1,0.1-0.2c0,0,0-0.1,0-0.2
		l-0.7-3.1l0-0.1L38.5,19.1L38.5,19.1z"/>
	<path class="st0" d="M63.9,27.3c0-0.1,0-0.2,0.1-0.3l0,0l1.1-4.7l0,0l0.2-1l0-0.2l0,0c0-0.1,0-0.1,0-0.1c0-0.1,0-0.2-0.2-0.3
		c-0.1-0.1-1-0.4-1.1-0.5c-0.1-0.1-0.2,0-0.3,0.1c0,0-0.1,0.1-0.1,0.1l0,0l-0.1,0.2L63,21.3l0,0l-2.6,4.1l0,0
		c-0.1,0.1-0.1,0.2-0.2,0.3C60.1,26,60,26.1,60,26.2c0,0.1,1,0.5,1.1,0.5c0.1,0,0.1-0.1,0.2-0.2l0,0l0,0l0.2-0.3
		c0,0,0.3-0.5,0.4-0.6c0.1-0.1,0.1-0.1,0.2-0.1c0.1,0,0.2,0,0.2,0c0.1,0.1,0.2,0.1,0.3,0.1c0,0,0.1,0,0.1,0.1c0,0.1,0.1,0.2,0.1,0.2
		c-0.1,0.2-0.1,0.4-0.2,0.7c0,0.1,0,0.2-0.1,0.3l0,0l0,0c0,0.1,0,0.3,0,0.3c0,0.1,1,0.5,1.1,0.5C63.9,27.7,63.9,27.5,63.9,27.3z
		 M62.7,24.3l0.1-0.2l0.1-0.2l0.1-0.1l0.1-0.1l0,0l0.1-0.2c0,0,0.1-0.2,0.2-0.2c0.1,0,0,0.3,0,0.3l-0.1,0.2l0,0l0,0.2l0,0.2l0,0.2
		l0,0.2c0,0,0,0.1-0.2,0c-0.1,0,0,0-0.2-0.1C62.7,24.3,62.7,24.3,62.7,24.3z"/>
	<path class="st0" d="M53.9,24.2c0-0.1,0-0.2,0-0.4l0,0l-0.1-4.9l0,0l0-1l0-0.2l0,0c0-0.1,0-0.1,0-0.2c0-0.1-0.1-0.2-0.3-0.2
		c-0.2-0.1-1.1-0.2-1.2-0.2c-0.1,0-0.3,0-0.3,0.2c0,0,0,0.1-0.1,0.1l0,0l-0.1,0.2l-0.3,1l0,0L50,23.3l0,0c0,0.1-0.1,0.3-0.1,0.3
		c-0.1,0.3-0.1,0.4-0.1,0.5c0.1,0.1,1.1,0.3,1.2,0.2c0,0,0.1-0.2,0.2-0.3l0,0l0,0l0.1-0.3c0,0,0.2-0.6,0.2-0.7
		c0-0.1,0.1-0.1,0.2-0.2c0.1,0,0.2,0,0.2,0c0.1,0,0.2,0,0.4,0.1c0,0,0.1,0,0.2,0.1c0.1,0.1,0.1,0.1,0.1,0.2c0,0.2,0,0.5,0,0.7
		c0,0.1,0,0.2,0,0.3l0,0l0,0c0,0.1,0,0.3,0.1,0.3c0,0.1,1.1,0.3,1.2,0.2C53.9,24.6,53.9,24.4,53.9,24.2z M52,21.5l0.1-0.2l0.1-0.2
		l0-0.2l0-0.1l0,0l0.1-0.2c0,0,0.1-0.2,0.2-0.2c0.1,0,0.1,0.3,0.1,0.3l0,0.3l0,0l0,0.2l0,0.2l0,0.2l0,0.2c0,0,0,0.1-0.2,0
		c-0.1,0,0,0-0.2,0S52,21.5,52,21.5z"/>
	<path class="st0" d="M34,23.4L34,23.2l0,0l0,0c0,0,0,0,0,0c0,0-0.1,0-0.2,0c-0.1,0-0.2,0.1-0.3,0.1c0,0,0,0,0,0l0,0l-0.1,0
		c-0.2,0-0.3,0.1-0.3,0.1c-0.1,0-0.1,0.1-0.1,0.1c0,0,0,0,0,0l0,0l0.1,0.2l0,0l0,0l0,0l0,0l0,0l0,0l0,0l0.1,0.3l0,0.1l0,0l0,0l0,0
		l0,0l0.1,0.2c0,0.1,0,0.2,0,0.2c0,0.1-0.1,0.2-0.3,0.3c0,0,0,0-0.1,0c0,0,0,0,0,0c-0.2,0.1-0.5,0-0.6-0.2c0,0,0-0.1-0.1-0.1
		c0,0,0-0.1,0-0.1c0,0,0,0,0,0c0,0,0,0,0,0l0,0l-0.9-3l0,0L31,21l0,0c0,0,0-0.1,0-0.1c0-0.1,0-0.1,0-0.2c0-0.1,0.1-0.2,0.3-0.3
		c0,0,0,0,0.1,0c0,0,0,0,0,0c0.2-0.1,0.5,0,0.6,0.2c0,0,0,0,0,0l0,0l0,0l0,0l0,0l0,0l0,0l0,0l0,0l0.1,0.2l0,0l0,0l0,0l0,0l0,0
		l0.1,0.4l0,0l0,0l0,0c0,0,0,0,0,0c0,0,0.1,0,0.2,0c0.1,0,0.7-0.2,0.9-0.3c0,0-0.1-0.4-0.3-0.9c0,0-0.2-0.4-0.1-0.2
		c-0.4-0.8-1.4-1.1-2.3-0.7c-0.6,0.3-1,0.9-1,1.6c0,0,0,0.2,0,0.3c0,0,0,0.2,0.1,0.2l0,0l0.1,0.4l0,0l0,0l0,0.1l0,0l0,0l0,0l0,0.1
		l0.2,0.8l0,0.2l0,0l0,0.1l0,0.1l0,0.1l0.5,1.5l0.1,0.2l0,0l0,0c0,0.1,0,0.1,0.1,0.2c0,0,0,0,0,0c0.4,0.9,1.5,1.3,2.3,0.8
		c0.6-0.3,1-0.9,1-1.6c0-0.1,0-0.2,0-0.2c0,0,0-0.1,0-0.1L34,23.4L34,23.4z"/>
	<path class="st0" d="M48.2,21.4L48.2,21.4l0-1.2l0,0c0-0.1,0-0.1,0-0.1c0-0.1-0.1-0.2-0.2-0.2c-0.1,0-0.2,0-0.3,0c0,0,0,0,0,0
		l-0.1,0l-0.1,0l-0.6,0v0c-0.1,0-0.2,0-0.3,0c-0.1,0-0.2,0.1-0.2,0.2c0,0.1,0,0.2,0,0.4c0,0.3,0,0.4,0.1,0.5
		c0.1,0.1,0.5,0.1,0.5,0.3l0,0.1l0,0.4l0-0.3l0,0.2l0,0l0,0l0,0l0,0l0,0l0,0l0,0l0,0.3l0,0l0,0.1l0,0l0,0l0,0l0,0l0,0.2
		c0,0.1,0,0.2-0.1,0.2c-0.1,0.1-0.2,0.2-0.4,0.2c0,0-0.1,0-0.1,0c0,0,0,0,0,0c-0.2,0-0.5-0.2-0.5-0.4c0,0,0-0.1,0-0.1
		c0,0,0-0.1,0-0.1c0,0,0,0,0,0c0,0,0,0,0,0l0,0l0-3.1l0,0l0-0.5l0,0c0,0,0-0.1,0-0.1c0-0.1,0.1-0.1,0.1-0.1c0.1-0.1,0.2-0.2,0.4-0.2
		c0,0,0.1,0,0.1,0c0,0,0,0,0,0c0.2,0,0.5,0.2,0.5,0.4c0,0,0,0,0,0l0,0l0,0l0,0l0,0l0,0l0,0l0,0l0,0l0,0.2l0,0l0,0l0,0l0,0l0,0l0,0.4
		l0,0l0,0l0,0c0,0,0,0,0,0c0,0,0.1,0,0.2,0c0.1,0,0.7,0,0.9,0c0,0,0-0.4,0-1c0,0,0-0.2,0,0c0-1-1.1-1.7-2-1.6
		c-0.7,0.1-1.3,0.6-1.4,1.2c0,0,0,0.2,0,0.3c0,0,0,0.2,0,0.2l0,0.4l0,0l0,0l0,0.1l0,0l0,0l0,0l0,0.1l0,0.8l0,0.2l0,0l0,0.1l0,0.1
		l0,0.1l0,1.6l0,0.2l0,0l0,0c0,0.1,0,0.1,0,0.2c0,0,0,0,0,0c0.1,1,1,1.6,2,1.5c0.7-0.1,1.2-0.6,1.4-1.2c0.1-0.2,0.1-0.7,0.1-0.8
		c0,0,0,0,0,0l0,0c0,0,0,0,0,0L48.2,21.4z"/>
</g>
<g>
	<path class="st0" d="M105.6,36.8l-2.3,1.7l1.4,1.9H95v2.9h10.1v2.3h-5.5h-2.2h-0.7v12.7h2.9v-9.8h5.5v12.2h2.9V48.5h5.5v6.6
		l-2.8-0.8l-0.8,2.8l3.9,1.3l0,0c0.7,0,1.9,0,2.6,0v-9.8v-2.9h-2.9H108v-2.3h10.1v-2.9h-9.9L105.6,36.8z"/>
	<path class="st0" d="M172.2,40.2l-0.9-1.1c-0.2-0.2-0.3-0.4-0.5-0.6l-0.5-0.6l-6.4,5.4l1.8,2.3L172.2,40.2z"/>
	<path class="st0" d="M184.2,43.3l-7.1-5.4l-0.5,0.6c-0.2,0.2-1.4,1.6-1.4,1.6l7.2,5.4L184.2,43.3z"/>
	<polygon class="st0" points="176.4,43.2 175.6,42.5 174,41.3 162.7,50.2 164.4,52.5 174,45 183.5,52.5 185.3,50.2 176.4,43.2 	"/>
	<path class="st0" d="M178.4,50.9h-8.9h-2.2h-0.7v9.5h2.9v-0.6h8.9v0.6h2.9v-9.5h-0.7H178.4z M178.4,56.9h-8.9v-3.1h8.9V56.9z"/>
	<path class="st0" d="M138.4,46.2c0.5-1.6,1-3.2,1.1-3.6l-2-0.6l-0.9-0.3l-0.1,0.3l-0.1,0.6c-0.1,0.4-0.6,2.6-1.3,4.1
		c-0.6,1.3-1.4,2.5-2.4,3.9l-0.4,0.6l2.3,1.8l0.5-0.6c0.8-1,1.4-2.1,2-3.3l4.1,0c-0.1,1-0.3,2.5-0.8,3.5c-0.6,1.2-1.5,2.6-2.7,4.2
		l-0.5,0.6l2.3,1.8l0.5-0.6C141,57.6,142,56,143,54c0.7-1.4,1-3.7,1.2-4.9l5,0l0-3h0H138.4z"/>
	<polygon class="st0" points="204.7,43.8 204.7,46.7 218,46.7 218,55.6 204.7,55.6 204.7,58.5 218,58.5 218,59 220.8,59 220.8,58.5 
		220.8,55.6 220.8,46.7 220.8,43.8 218,43.8 	"/>
	<rect x="267.1" y="48.8" class="st0" width="20.2" height="2.9"/>
	<path class="st0" d="M255.6,42.2l-1.2,0h-12.7h-2.8v2.9v7h2.8v-7h11c-0.1,2.2-0.4,5.7-1.3,7.4c-2.1,4.1-7.1,6.2-7.1,6.2l-1,0.4
		l1.9,2.4l0.6-0.3c0.2-0.1,5.5-2.6,7.7-6.4c2.6-4.4,2.2-11.6,2.2-11.9L255.6,42.2z"/>
	<polygon class="st0" points="319.8,49.5 310.8,50.4 310.2,47.1 317,46.3 316.7,43.5 309.7,44.2 308.9,39.3 306,39.8 306.8,44.5 
		300.6,45.2 300.9,48.1 307.3,47.4 307.9,50.7 298.8,51.7 299.1,54.6 308.3,53.6 309.7,61.4 312.5,60.9 311.2,53.3 320.1,52.3 	"/>
	<path class="st0" d="M435,46h14.6c-0.5,2.1-1.6,6-3,7.7c-3,3.5-8.5,4.1-8.6,4.1l-1.1,0.1l1.4,2.9l0.6-0.1c0.3,0,6.2-1,9.2-4.1
		c2.9-3.1,4.3-8.5,4.7-10.5c0,0,0.1-0.7,0.1-2.8c0,0,0,0,0,0c0,0,0,0,0,0c0,0,0,0,0,0H435V46z"/>
	<polygon class="st0" points="480.5,56.7 480.5,50.4 486,50.4 486,47.5 471.9,47.5 471.9,50.4 477.6,50.4 477.6,56.7 470.7,56.7 
		470.7,59.6 487.1,59.6 487.1,56.7 	"/>
	<path class="st0" d="M350.4,45.3c0,0.1-3.2,6.2-5.7,7.8c-3.9,2.6-9.2,2.9-9.3,2.9l-0.9,0l0.5,3l0.8-0.1c0.2,0,5.9-0.6,9.6-2.8
		c4.3-2.6,7.5-9,7.6-9.3l0.3-0.6l-2.4-1.8L350.4,45.3z"/>
	<path class="st0" d="M340.5,47.2l0.6,0.5l0.5-0.5l1.5-1.5c0,0-0.6-0.5-0.6-0.5c-1.1-0.9-2.3-1.9-3.8-2.9c-1.1-0.7-1.8-1.1-1.9-1.1
		l-0.7-0.4l-1.5,2.4l0.7,0.4C335.4,43.6,338.3,45.4,340.5,47.2z"/>
	<path class="st0" d="M385.7,39.2l-0.5-0.5l-0.6,0.4l-0.4,0.3c-0.3,0.2-0.5,0.4-0.8,0.5l-0.7,0.5l0.6,0.6c1.1,1.1,1.9,2.2,2.7,3.1
		l0.4,0.6l0.6-0.4l1.8-1.1l-0.5-0.7C387.7,41.5,386.7,40.3,385.7,39.2z"/>
	<path class="st0" d="M389,37l-0.5-0.5l-0.6,0.4l-0.4,0.3c-0.3,0.2-0.5,0.3-0.7,0.5l-0.7,0.5l0.6,0.6c1,1.1,2,2.2,2.7,3.1l0.4,0.6
		l0.6-0.4l1.8-1.1l-0.5-0.7C391,39.2,390.1,38.1,389,37z"/>
	<path class="st0" d="M411.8,45c0.1-2.5,0-4.4,0-4.5l0-0.7h-2.9l0,0.8c0,0,0,2-0.1,4.4h-7.4v2.9h7.2c-0.1,1.4-0.3,2.4-0.6,3.1
		c-1.7,4.3-6.3,6.8-6.4,6.8l-0.9,0.5l2.1,2.2l0.6-0.3c0.2-0.1,5-3,6.9-7c0.7-1.4,1.1-3.2,1.3-5.3h4.8c0,1.4-0.2,3.3-0.4,5
		c-0.2,1.8-0.6,3.8-0.7,4.2c0,0.1,0,0.2-0.1,0.2c-0.4,0.1-0.6,0-0.9,0c-1.2,0-2.3-0.2-2.3-0.2l-1.2-0.2l0.7,3.1L412,60
		c0,0,1.2,0.1,2.4,0.1c2,0,3.2-0.1,3.5-1.3l0.1-0.6c0.3-1.3,0.4-2.3,0.6-3.6l0.1-0.6c0.5-3.4,0.7-7.4,0.5-8.9H411.8z"/>
	<path class="st0" d="M381.9,43.3h-3h-3c0.3-0.6,0.5-1.2,0.9-2.5l0.2-0.8l-0.8-0.2c-0.4-0.1-0.9-0.3-1.3-0.4l-0.8-0.2l-0.2,0.8
		c-0.2,0.8-0.4,1.2-0.6,1.6c-0.1,0.2-0.1,0.3-0.2,0.5c-0.2,0.4-0.3,0.8-0.5,1.3l-0.1,0.1C371,46.9,368,50,368,50l-0.6,0.6l2.4,1.8
		l0.5-0.5c0.1-0.1,2.2-2.4,4.2-5.7h7c-0.5,2.2-1.3,5.4-2.5,6.9c-2.7,3.7-7.9,4.8-8,4.8l-1.1,0.2l1.4,2.7l0.6-0.2
		c0.2-0.1,5.8-1.5,8.6-4.9c2.3-2.8,3.4-7.2,3.9-9.6c0,0,0.2-0.9,0.2-2.5c0-0.1,0-0.1,0-0.1v-0.3h-2.5H381.9z"/>
</g>
</svg>
